<?xml version="1.0" standalone="no"?>
<!DOCTYPE svg PUBLIC "-//W3C//DTD SVG 20010904//EN"
 "http://www.w3.org/TR/2001/REC-SVG-20010904/DTD/svg10.dtd">
<svg version="1.0" xmlns="http://www.w3.org/2000/svg"
 width="103.000000pt" height="103.000000pt" viewBox="0 0 103.000000 103.000000"
 preserveAspectRatio="xMidYMid meet">
<metadata>
Created by potrace 1.11, written by Peter Selinger 2001-2013
</metadata>
<g transform="translate(0.000000,103.000000) scale(0.100000,-0.100000)"
fill="#000000" stroke="none">
<path d="M925 976 c0 -30 4 -58 8 -62 4 -4 7 20 7 54 0 34 -4 62 -8 62 -4 0
-8 -24 -7 -54z"/>
<path d="M12 968 l3 -53 43 0 c52 -1 65 12 52 53 -1 4 -3 16 -4 27 -1 17 -9
21 -49 23 l-48 3 3 -53z m78 22 c0 -5 -11 -10 -25 -10 -33 0 -32 -18 0 -22 37
-4 35 -22 -2 -25 -31 -3 -33 -1 -33 32 0 32 2 35 30 35 17 0 30 -4 30 -10z"/>
<path d="M546 1004 c-10 -25 -7 -84 4 -84 6 0 10 18 10 41 0 39 1 40 33 37 40
-4 44 -32 5 -36 -33 -4 -38 -22 -5 -22 41 0 62 30 45 63 -12 23 -83 24 -92 1z"/>
<path d="M770 1006 c0 -14 -35 -28 -45 -18 -9 9 -55 10 -55 1 0 -4 10 -9 23
-11 14 -2 22 -10 22 -22 0 -12 -8 -20 -22 -22 -13 -2 -23 1 -23 6 0 6 9 10 20
10 11 0 20 5 20 10 0 17 -47 11 -54 -7 -9 -22 6 -35 39 -35 31 0 38 5 40 35 1
12 9 23 18 25 13 3 17 -4 17 -27 0 -17 5 -31 10 -31 6 0 10 14 10 30 0 20 5
30 15 30 8 0 15 5 15 11 0 5 -5 7 -10 4 -6 -3 -13 1 -16 9 -8 20 -24 21 -24 2z"/>
<path d="M135 992 c-3 -3 -5 -20 -5 -38 0 -34 25 -50 51 -33 10 6 8 9 -7 9
-22 0 -39 24 -28 41 7 12 44 12 44 0 0 -5 -10 -11 -22 -14 -20 -3 -21 -4 -5
-11 24 -11 47 0 47 24 0 11 -3 20 -7 21 -36 5 -64 5 -68 1z"/>
<path d="M234 986 c-9 -29 -7 -83 3 -73 3 4 7 19 8 34 1 22 6 28 23 27 12 -1
22 4 22 10 0 15 -51 16 -56 2z"/>
<path d="M322 991 c-15 -9 -25 -71 -12 -71 10 0 14 13 11 36 -2 14 27 26 41
18 6 -4 9 -1 6 6 -5 15 -30 21 -46 11z"/>
<path d="M388 983 c-10 -49 20 -83 53 -62 12 7 11 9 -1 10 -8 1 -18 1 -22 0
-5 0 -9 7 -10 17 0 9 -2 22 -2 29 -2 21 -14 25 -18 6z"/>
<path d="M458 988 c-1 -12 -4 -45 -7 -75 0 -7 -10 -13 -21 -13 -11 0 -20 -5
-20 -11 0 -6 12 -9 28 -7 25 3 27 7 32 56 3 30 2 56 -2 58 -4 3 -9 -1 -10 -8z"/>
<path d="M846 988 c-25 -14 -20 -57 7 -67 27 -10 41 -9 45 4 1 6 -8 10 -20 10
-16 0 -23 6 -23 20 0 11 7 21 15 21 8 1 21 2 29 3 8 0 11 4 7 8 -10 10 -43 11
-60 1z"/>
<path d="M950 986 c0 -9 7 -12 20 -9 19 5 25 -8 21 -44 -1 -6 3 -14 9 -18 6
-4 10 9 10 34 0 23 -3 41 -7 42 -5 0 -18 2 -30 5 -15 2 -23 -1 -23 -10z"/>
<path d="M567 882 c-27 -5 -34 -37 -33 -145 1 -116 13 -135 85 -132 23 1 41 0
41 -2 0 -1 -7 -21 -16 -43 -9 -23 -15 -43 -12 -45 2 -2 39 17 83 42 71 41 87
47 144 48 89 1 97 13 94 136 0 52 -2 102 -2 111 -1 9 -11 20 -23 24 -23 8
-326 12 -361 6z"/>
<path d="M182 742 c-49 -7 -53 -32 -50 -276 3 -209 4 -226 22 -239 16 -12 80
-14 359 -13 l339 1 18 23 c16 20 18 40 17 164 l-2 143 -27 2 -28 2 0 -140 0
-139 -320 0 -320 0 0 204 c0 154 3 205 13 208 6 2 64 3 127 2 63 -1 123 0 132
2 22 6 20 54 -2 55 -46 3 -258 4 -278 1z"/>
<path d="M355 605 c-28 -27 -37 -106 -12 -97 4 1 12 -10 18 -25 17 -44 -4 -79
-56 -92 -29 -7 -44 -17 -48 -31 -3 -12 0 -20 7 -20 7 0 41 -11 75 -25 38 -16
71 -23 84 -20 63 19 137 51 137 61 0 17 -23 33 -58 40 -46 9 -63 40 -45 84 7
19 11 25 9 13 -2 -13 -1 -23 4 -23 8 0 20 34 20 59 0 8 -6 11 -15 7 -11 -4
-15 1 -15 18 0 25 -28 56 -51 56 -25 -1 -51 -28 -53 -54 0 -14 -5 -26 -10 -26
-14 0 3 62 22 76 35 27 102 4 102 -37 0 -10 4 -19 9 -19 19 0 -10 57 -35 69
-38 17 -63 13 -89 -14z m41 -220 c-3 -9 0 -15 9 -15 8 0 15 4 15 9 0 5 6 11
14 14 19 7 -24 -60 -43 -68 -21 -8 -27 3 -13 25 8 13 8 20 2 20 -7 0 -6 6 2
15 17 19 22 19 14 0z m48 -42 c-5 -5 -12 -12 -16 -18 -4 -6 -8 -2 -8 8 0 9 7
17 17 17 9 0 12 -3 7 -7z"/>
<path d="M170 152 c-14 -2 -33 -11 -42 -19 -21 -18 -52 -108 -43 -123 8 -13
824 -14 844 -1 12 7 11 17 -5 60 -31 88 -9 83 -391 85 -186 0 -349 -1 -363 -2z"/>
</g>
</svg>
